<svg xmlns="http://www.w3.org/2000/svg" viewBox="-8 -192 667 250.8" role="img" aria-label="Festlio Events &amp; Entertainment">
  <defs>
    <linearGradient id="fl-grad-lk" x1="0" y1="0" x2="1" y2="0">
      <stop offset="0" stop-color="#FF5A36"/>
      <stop offset="1" stop-color="#FF3FA4"/>
    </linearGradient>
  </defs>
  <path d="M44.20 0L13.20 0L13.20-149L115.20-149L115.20-122L44.20-122L44.20-84.20L105.20-84.20L105.20-57.20L44.20-57.20 M178 2.40Q160.60 2.40 147.80-5.30Q135-13 128-26Q121-39 121-54.80Q121-71.20 128.30-84Q135.60-96.80 148-104.20Q160.40-111.60 176-111.60Q193.40-111.60 205.40-104.40Q217.40-97.20 223.70-85.10Q230-73 230-57.80Q230-54.60 229.70-51.50Q229.40-48.40 228.60-46.20L152.20-46.20Q153.40-36 160.40-29.80Q167.40-23.60 178.40-23.60Q186.40-23.60 192.10-26.80Q197.80-30 201-35.60L225-24.20Q220-12.20 207.40-4.90Q194.80 2.40 178 2.40M176-87.60Q167.20-87.60 161.10-82.60Q155-77.60 152.80-68.20L198.20-68.20Q197.20-76.80 191.20-82.20Q185.20-87.60 176-87.60 M289.40 2.40Q271.40 2.40 258.10-6.10Q244.80-14.60 240-29L262-39.40Q266.20-30.60 273.40-25.60Q280.60-20.60 289.40-20.60Q302.60-20.60 302.60-30.40Q302.60-37 291.80-40L273.20-45.20Q259.80-49 252.60-57.50Q245.40-66 245.40-77.60Q245.40-87.80 250.60-95.40Q255.80-103 265.20-107.30Q274.60-111.60 286.80-111.60Q302.80-111.60 314.90-104.10Q327-96.60 332-83L309.80-72.60Q307.40-79.40 301.10-83.50Q294.80-87.60 286.80-87.60Q281-87.60 277.70-85.20Q274.40-82.80 274.40-78.60Q274.40-72.20 286.20-68.80L303.60-63.60Q317.20-59.60 324.40-51.50Q331.60-43.40 331.60-31.60Q331.60-16.40 320-7Q308.40 2.40 289.40 2.40 M401.20 1.20Q381.40 1.20 370.50-9.50Q359.60-20.20 359.60-39.40L359.60-83.20L341.20-83.20L341.20-109.20L342.20-109.20Q359.60-109.20 359.60-126L359.60-134L389.60-134L389.60-109.20L415.20-109.20L415.20-83.20L389.60-83.20L389.60-41.40Q389.60-24.80 408.20-24.80Q411-24.80 415.20-25.40L415.20 0Q412.20 0.40 408.40 0.80Q404.60 1.20 401.20 1.20 M461.80 0L431.80 0L431.80-151.40L461.80-151.40 M587 2.40Q570.80 2.40 557.50-5Q544.20-12.40 536.30-25.30Q528.40-38.20 528.40-54.60Q528.40-71.20 536.30-84Q544.20-96.80 557.50-104.20Q570.80-111.60 587-111.60Q603.20-111.60 616.40-104.20Q629.60-96.80 637.50-84Q645.40-71.20 645.40-54.60Q645.40-38.20 637.50-25.30Q629.60-12.40 616.40-5Q603.20 2.40 587 2.40M587-24.60Q599.20-24.60 606.80-33Q614.40-41.40 614.40-54.60Q614.40-67.60 606.80-76.10Q599.20-84.60 587-84.60Q574.80-84.60 567.10-76.10Q559.40-67.60 559.40-54.60Q559.40-41.40 567.10-33Q574.80-24.60 587-24.60" fill="#FFFFFF"/>
  <path d="M 484.8 -94 a 13 13 0 0 1 26 0 L 510.8 -13 a 13 13 0 0 1 -26 0 Z" fill="#FFFFFF"/>
  <path d="M 497.8 -182 L 506.90000000000003 -165.1 L 523.8 -156 L 506.90000000000003 -146.9 L 497.8 -130 L 488.7 -146.9 L 471.8 -156 L 488.7 -165.1 Z" fill="url(#fl-grad-lk)"/>
  <g transform="translate(61.75600000000003, 36)"><path d="M18.18 0L2.46 0L2.46-23.84L18.18-23.84L18.18-20.48L6.24-20.48L6.24-13.63L17.54-13.63L17.54-10.27L6.24-10.27L6.24-3.36L18.18-3.36 M37.38 0L33.15 0L24.70-23.84L28.77-23.84L35.26-4.67L41.76-23.84L45.82-23.84 M69.47 0L53.76 0L53.76-23.84L69.47-23.84L69.47-20.48L57.54-20.48L57.54-13.63L68.83-13.63L68.83-10.27L57.54-10.27L57.54-3.36L69.47-3.36 M81.89 0L78.11 0L78.11-23.84L81.15-23.84L93.09-7.39L93.09-23.84L96.83-23.84L96.83 0L93.79 0L81.89-16.70 M114.85 0L111.10 0L111.10-20.48L104.77-20.48L104.77-23.84L121.09-23.84L121.09-20.48L114.85-20.48 M137.38 0.38Q135.10 0.38 133.20-0.45Q131.30-1.28 129.94-2.77Q128.58-4.26 127.97-6.18L131.17-7.52Q132-5.31 133.68-4.13Q135.36-2.94 137.54-2.94Q139.46-2.94 140.62-3.82Q141.79-4.70 141.79-6.18Q141.79-7.49 141.04-8.26Q140.29-9.02 138.88-9.47L134.40-10.88Q131.71-11.71 130.30-13.42Q128.90-15.14 128.90-17.44Q128.90-19.42 129.89-20.96Q130.88-22.50 132.61-23.36Q134.34-24.22 136.61-24.22Q138.72-24.22 140.50-23.47Q142.27-22.72 143.54-21.39Q144.80-20.06 145.38-18.37L142.24-16.99Q141.54-18.88 140.05-19.90Q138.56-20.93 136.61-20.93Q134.82-20.93 133.73-20.03Q132.64-19.14 132.64-17.63Q132.64-16.48 133.38-15.58Q134.11-14.69 135.62-14.24L139.78-12.93Q145.50-11.14 145.50-6.43Q145.50-4.42 144.46-2.88Q143.42-1.34 141.60-0.48Q139.78 0.38 137.38 0.38  M172.48 0.38Q170.37 0.38 168.75-0.40Q167.14-1.18 166.24-2.59Q165.34-4 165.34-5.92Q165.34-7.78 166.10-9.09Q166.85-10.40 167.90-11.28Q168.96-12.16 169.82-12.70Q168.90-13.79 168.14-15.15Q167.39-16.51 167.39-18.24Q167.39-20.03 168.22-21.38Q169.06-22.72 170.46-23.47Q171.87-24.22 173.54-24.22Q175.23-24.22 176.61-23.47Q177.98-22.72 178.80-21.41Q179.62-20.10 179.62-18.43Q179.62-16.77 178.88-15.57Q178.14-14.37 177.10-13.52Q176.06-12.67 175.07-12.06L178.78-8L181.34-11.71L185.22-11.71L181.15-5.44L186.14 0L181.63 0L179.17-2.66Q178.08-1.47 176.48-0.54Q174.88 0.38 172.48 0.38M170.88-18.40Q170.88-17.28 171.52-16.27Q172.16-15.26 172.93-14.43Q174.24-15.17 175.25-16.13Q176.26-17.09 176.26-18.43Q176.26-19.58 175.49-20.37Q174.72-21.15 173.57-21.15Q172.42-21.15 171.65-20.38Q170.88-19.62 170.88-18.40M169.18-5.98Q169.18-4.48 170.11-3.65Q171.04-2.82 172.61-2.82Q174.14-2.82 175.14-3.54Q176.13-4.26 176.83-5.15L172.06-10.27Q171.04-9.57 170.11-8.54Q169.18-7.52 169.18-5.98  M221.89 0L206.18 0L206.18-23.84L221.89-23.84L221.89-20.48L209.95-20.48L209.95-13.63L221.25-13.63L221.25-10.27L209.95-10.27L209.95-3.36L221.89-3.36 M234.30 0L230.53 0L230.53-23.84L233.57-23.84L245.50-7.39L245.50-23.84L249.25-23.84L249.25 0L246.21 0L234.30-16.70 M267.26 0L263.52 0L263.52-20.48L257.18-20.48L257.18-23.84L273.50-23.84L273.50-20.48L267.26-20.48 M297.15 0L281.44 0L281.44-23.84L297.15-23.84L297.15-20.48L285.22-20.48L285.22-13.63L296.51-13.63L296.51-10.27L285.22-10.27L285.22-3.36L297.15-3.36 M309.57 0L305.79 0L305.79-23.84L314.46-23.84Q316.86-23.84 318.69-22.94Q320.51-22.05 321.55-20.38Q322.59-18.72 322.59-16.38Q322.59-13.89 321.36-12.14Q320.13-10.40 318.05-9.60L323.55 0L319.26 0L314.21-8.96L309.57-8.96L309.57 0M309.57-20.48L309.57-12.32L314.53-12.32Q316.45-12.32 317.63-13.42Q318.82-14.53 318.82-16.42Q318.82-18.27 317.63-19.38Q316.45-20.48 314.53-20.48 M339.17 0L335.42 0L335.42-20.48L329.09-20.48L329.09-23.84L345.41-23.84L345.41-20.48L339.17-20.48 M353.66 0L349.63 0L358.02-23.84L362.69-23.84L371.07 0L367.04 0L365.22-5.34L355.52-5.34L353.66 0M360.35-19.65L356.61-8.70L364.06-8.70 M382.78 0L379.01 0L379.01-23.84L382.78-23.84 M396.61 0L392.83 0L392.83-23.84L395.87-23.84L407.81-7.39L407.81-23.84L411.55-23.84L411.55 0L408.51 0L396.61-16.70 M425.38 0L421.60 0L421.60-23.84L425.12-23.84L433.18-12.64L441.12-23.84L444.64-23.84L444.64 0L440.90 0L440.90-17.06L433.31-6.72L432.93-6.72L425.38-17.28 M470.40 0L454.69 0L454.69-23.84L470.40-23.84L470.40-20.48L458.46-20.48L458.46-13.63L469.76-13.63L469.76-10.27L458.46-10.27L458.46-3.36L470.40-3.36 M482.82 0L479.04 0L479.04-23.84L482.08-23.84L494.02-7.39L494.02-23.84L497.76-23.84L497.76 0L494.72 0L482.82-16.70 M515.78 0L512.03 0L512.03-20.48L505.70-20.48L505.70-23.84L522.02-23.84L522.02-20.48L515.78-20.48" fill="#A8B0C0"/></g>
</svg>