<svg xmlns="http://www.w3.org/2000/svg" viewBox="-8 -179 667 189" role="img" aria-label="Festlio">
      <defs><linearGradient id="g" x1="0" y1="0" x2="1" y2="0"><stop offset="0" stop-color="#FF5A36"/><stop offset="1" stop-color="#FF3FA4"/></linearGradient></defs>
      <path d="M44.20 0L13.20 0L13.20-149L115.20-149L115.20-122L44.20-122L44.20-84.20L105.20-84.20L105.20-57.20L44.20-57.20 M178 2.40Q160.60 2.40 147.80-5.30Q135-13 128-26Q121-39 121-54.80Q121-71.20 128.30-84Q135.60-96.80 148-104.20Q160.40-111.60 176-111.60Q193.40-111.60 205.40-104.40Q217.40-97.20 223.70-85.10Q230-73 230-57.80Q230-54.60 229.70-51.50Q229.40-48.40 228.60-46.20L152.20-46.20Q153.40-36 160.40-29.80Q167.40-23.60 178.40-23.60Q186.40-23.60 192.10-26.80Q197.80-30 201-35.60L225-24.20Q220-12.20 207.40-4.90Q194.80 2.40 178 2.40M176-87.60Q167.20-87.60 161.10-82.60Q155-77.60 152.80-68.20L198.20-68.20Q197.20-76.80 191.20-82.20Q185.20-87.60 176-87.60 M289.40 2.40Q271.40 2.40 258.10-6.10Q244.80-14.60 240-29L262-39.40Q266.20-30.60 273.40-25.60Q280.60-20.60 289.40-20.60Q302.60-20.60 302.60-30.40Q302.60-37 291.80-40L273.20-45.20Q259.80-49 252.60-57.50Q245.40-66 245.40-77.60Q245.40-87.80 250.60-95.40Q255.80-103 265.20-107.30Q274.60-111.60 286.80-111.60Q302.80-111.60 314.90-104.10Q327-96.60 332-83L309.80-72.60Q307.40-79.40 301.10-83.50Q294.80-87.60 286.80-87.60Q281-87.60 277.70-85.20Q274.40-82.80 274.40-78.60Q274.40-72.20 286.20-68.80L303.60-63.60Q317.20-59.60 324.40-51.50Q331.60-43.40 331.60-31.60Q331.60-16.40 320-7Q308.40 2.40 289.40 2.40 M401.20 1.20Q381.40 1.20 370.50-9.50Q359.60-20.20 359.60-39.40L359.60-83.20L341.20-83.20L341.20-109.20L342.20-109.20Q359.60-109.20 359.60-126L359.60-134L389.60-134L389.60-109.20L415.20-109.20L415.20-83.20L389.60-83.20L389.60-41.40Q389.60-24.80 408.20-24.80Q411-24.80 415.20-25.40L415.20 0Q412.20 0.40 408.40 0.80Q404.60 1.20 401.20 1.20 M461.80 0L431.80 0L431.80-151.40L461.80-151.40 M587 2.40Q570.80 2.40 557.50-5Q544.20-12.40 536.30-25.30Q528.40-38.20 528.40-54.60Q528.40-71.20 536.30-84Q544.20-96.80 557.50-104.20Q570.80-111.60 587-111.60Q603.20-111.60 616.40-104.20Q629.60-96.80 637.50-84Q645.40-71.20 645.40-54.60Q645.40-38.20 637.50-25.30Q629.60-12.40 616.40-5Q603.20 2.40 587 2.40M587-24.60Q599.20-24.60 606.80-33Q614.40-41.40 614.40-54.60Q614.40-67.60 606.80-76.10Q599.20-84.60 587-84.60Q574.80-84.60 567.10-76.10Q559.40-67.60 559.40-54.60Q559.40-41.40 567.10-33Q574.80-24.60 587-24.60" fill="#0B1C30"/>
      <path d="M 484.8 -94 a 13 13 0 0 1 26 0 L 510.8 -13 a 13 13 0 0 1 -26 0 Z" fill="#0B1C30"/>
      <path d="M 497.8 -169 L 509.35 -159.55 L 518.8 -148 L 509.35 -136.45 L 497.8 -127 L 486.25 -136.45 L 476.8 -148 L 486.25 -159.55 Z" fill="url(#g)"/>
    </svg>