<svg xmlns="http://www.w3.org/2000/svg" viewBox="0 0 1200 630" width="1200" height="630">
  <defs>
    <linearGradient id="og-bg" x1="0" y1="0" x2="1" y2="1">
      <stop offset="0" stop-color="#0B0D12"/>
      <stop offset="0.55" stop-color="#1B0F1A"/>
      <stop offset="1" stop-color="#2A0E18"/>
    </linearGradient>
    <linearGradient id="og-sparkle-grad" x1="0" y1="0" x2="1" y2="0">
      <stop offset="0" stop-color="#FF5A36"/>
      <stop offset="1" stop-color="#FF3FA4"/>
    </linearGradient>
    <radialGradient id="og-glow" cx="0.85" cy="0.25" r="0.6">
      <stop offset="0" stop-color="#FF3FA4" stop-opacity="0.35"/>
      <stop offset="1" stop-color="#FF3FA4" stop-opacity="0"/>
    </radialGradient>
    <radialGradient id="og-glow2" cx="0.15" cy="0.85" r="0.5">
      <stop offset="0" stop-color="#FF5A36" stop-opacity="0.30"/>
      <stop offset="1" stop-color="#FF5A36" stop-opacity="0"/>
    </radialGradient>
  </defs>
  <rect width="1200" height="630" fill="url(#og-bg)"/>
  <rect width="1200" height="630" fill="url(#og-glow)"/>
  <rect width="1200" height="630" fill="url(#og-glow2)"/>
  <path d="M 1020 54 L 1032.6 77.4 L 1056 90 L 1032.6 102.6 L 1020 126 L 1007.4 102.6 L 984 90 L 1007.4 77.4 Z" fill="url(#og-sparkle-grad)" opacity="0.95"/>
  <path d="M 1110 182 L 1116.3 193.7 L 1128 200 L 1116.3 206.3 L 1110 218 L 1103.7 206.3 L 1092 200 L 1103.7 193.7 Z" fill="url(#og-sparkle-grad)" opacity="0.75"/>
  <path d="M 990 208 L 994.2 215.8 L 1002 220 L 994.2 224.2 L 990 232 L 985.8 224.2 L 978 220 L 985.8 215.8 Z" fill="url(#og-sparkle-grad)" opacity="0.6"/>
  <path d="M 1080 336 L 1088.4 351.6 L 1104 360 L 1088.4 368.4 L 1080 384 L 1071.6 368.4 L 1056 360 L 1071.6 351.6 Z" fill="url(#og-sparkle-grad)" opacity="0.85"/>
  <path d="M 970 456 L 974.9 465.1 L 984 470 L 974.9 474.9 L 970 484 L 965.1 474.9 L 956 470 L 965.1 465.1 Z" fill="url(#og-sparkle-grad)" opacity="0.55"/>
  <path d="M 1140 510 L 1143.5 516.5 L 1150 520 L 1143.5 523.5 L 1140 530 L 1136.5 523.5 L 1130 520 L 1136.5 516.5 Z" fill="url(#og-sparkle-grad)" opacity="0.5"/>
  <g transform="translate(96 308) scale(0.95952023988006)">
    <g transform="translate(8 0)">
      <path d="M44.20 0L13.20 0L13.20-149L115.20-149L115.20-122L44.20-122L44.20-84.20L105.20-84.20L105.20-57.20L44.20-57.20 M178 2.40Q160.60 2.40 147.80-5.30Q135-13 128-26Q121-39 121-54.80Q121-71.20 128.30-84Q135.60-96.80 148-104.20Q160.40-111.60 176-111.60Q193.40-111.60 205.40-104.40Q217.40-97.20 223.70-85.10Q230-73 230-57.80Q230-54.60 229.70-51.50Q229.40-48.40 228.60-46.20L152.20-46.20Q153.40-36 160.40-29.80Q167.40-23.60 178.40-23.60Q186.40-23.60 192.10-26.80Q197.80-30 201-35.60L225-24.20Q220-12.20 207.40-4.90Q194.80 2.40 178 2.40M176-87.60Q167.20-87.60 161.10-82.60Q155-77.60 152.80-68.20L198.20-68.20Q197.20-76.80 191.20-82.20Q185.20-87.60 176-87.60 M289.40 2.40Q271.40 2.40 258.10-6.10Q244.80-14.60 240-29L262-39.40Q266.20-30.60 273.40-25.60Q280.60-20.60 289.40-20.60Q302.60-20.60 302.60-30.40Q302.60-37 291.80-40L273.20-45.20Q259.80-49 252.60-57.50Q245.40-66 245.40-77.60Q245.40-87.80 250.60-95.40Q255.80-103 265.20-107.30Q274.60-111.60 286.80-111.60Q302.80-111.60 314.90-104.10Q327-96.60 332-83L309.80-72.60Q307.40-79.40 301.10-83.50Q294.80-87.60 286.80-87.60Q281-87.60 277.70-85.20Q274.40-82.80 274.40-78.60Q274.40-72.20 286.20-68.80L303.60-63.60Q317.20-59.60 324.40-51.50Q331.60-43.40 331.60-31.60Q331.60-16.40 320-7Q308.40 2.40 289.40 2.40 M401.20 1.20Q381.40 1.20 370.50-9.50Q359.60-20.20 359.60-39.40L359.60-83.20L341.20-83.20L341.20-109.20L342.20-109.20Q359.60-109.20 359.60-126L359.60-134L389.60-134L389.60-109.20L415.20-109.20L415.20-83.20L389.60-83.20L389.60-41.40Q389.60-24.80 408.20-24.80Q411-24.80 415.20-25.40L415.20 0Q412.20 0.40 408.40 0.80Q404.60 1.20 401.20 1.20 M461.80 0L431.80 0L431.80-151.40L461.80-151.40 M587 2.40Q570.80 2.40 557.50-5Q544.20-12.40 536.30-25.30Q528.40-38.20 528.40-54.60Q528.40-71.20 536.30-84Q544.20-96.80 557.50-104.20Q570.80-111.60 587-111.60Q603.20-111.60 616.40-104.20Q629.60-96.80 637.50-84Q645.40-71.20 645.40-54.60Q645.40-38.20 637.50-25.30Q629.60-12.40 616.40-5Q603.20 2.40 587 2.40M587-24.60Q599.20-24.60 606.80-33Q614.40-41.40 614.40-54.60Q614.40-67.60 606.80-76.10Q599.20-84.60 587-84.60Q574.80-84.60 567.10-76.10Q559.40-67.60 559.40-54.60Q559.40-41.40 567.10-33Q574.80-24.60 587-24.60" fill="#FFFFFF"/>
      <path d="M 484.8 -94 a 13 13 0 0 1 26 0 L 510.8 -13 a 13 13 0 0 1 -26 0 Z" fill="#FFFFFF"/>
      <path d="M 497.8 -182 L 506.90000000000003 -165.1 L 523.8 -156 L 506.90000000000003 -146.9 L 497.8 -130 L 488.7 -146.9 L 471.8 -156 L 488.7 -165.1 Z" fill="url(#og-sparkle-grad)"/>
    </g>
  </g>
  <g transform="translate(96 418)"><path d="M8.58 0L3.39 0L3.39-32.78L24.73-32.78L24.73-28.16L8.58-28.16L8.58-18.30L22.97-18.30L22.97-13.68L8.58-13.68 M33.35-27.06L28.38-27.06L28.38-32.78L33.35-32.78L33.35-27.06M33.35 0L28.38 0L28.38-23.80L33.35-23.80 M43.91 0L38.94 0L38.94-23.80L43.69-23.80L43.69-20.90Q44.66-22.57 46.44-23.45Q48.22-24.33 50.42-24.33Q53.02-24.33 55.04-23.19Q57.07-22.04 58.23-20.02Q59.40-18 59.40-15.40L59.40 0L54.47 0L54.47-14.04Q54.47-16.68 53-18.19Q51.52-19.71 49.19-19.71Q46.86-19.71 45.39-18.19Q43.91-16.68 43.91-14.04 M75.50 0.53Q72.07 0.53 69.37-1.12Q66.66-2.77 65.10-5.59Q63.54-8.40 63.54-11.92Q63.54-15.44 65.10-18.26Q66.66-21.08 69.37-22.70Q72.07-24.33 75.46-24.33Q77.92-24.33 79.90-23.47Q81.88-22.62 83.25-21.03L83.25-33.31L88.18-33.31L88.18 0L83.47 0L83.47-3.04Q82.15-1.32 80.06-0.40Q77.97 0.53 75.50 0.53M75.99-4.09Q78.06-4.09 79.68-5.10Q81.31-6.12 82.28-7.88Q83.25-9.64 83.25-11.92Q83.25-14.17 82.28-15.93Q81.31-17.69 79.68-18.70Q78.06-19.71 75.99-19.71Q73.88-19.71 72.23-18.70Q70.58-17.69 69.65-15.93Q68.73-14.17 68.73-11.92Q68.73-9.64 69.65-7.88Q70.58-6.12 72.23-5.10Q73.88-4.09 75.99-4.09  M111.54 0L107.01 0L98.82-23.80L104.10-23.80L109.43-7.61L114.88-23.80L119.42-23.80L124.83-7.61L130.20-23.80L135.48-23.80L127.25 0L122.76 0L117.13-16.94 M143.62 0L138.64 0L138.64-33.31L143.62-33.31L143.62-21.25Q144.63-22.75 146.32-23.54Q148.02-24.33 150.13-24.33Q152.72-24.33 154.75-23.19Q156.77-22.04 157.94-20.02Q159.10-18 159.10-15.40L159.10 0L154.18 0L154.18-14.04Q154.18-16.68 152.68-18.19Q151.18-19.71 148.90-19.71Q146.61-19.71 145.11-18.19Q143.62-16.68 143.62-14.04 M171.34 0.53Q167.73 0.53 165.48-1.32Q163.24-3.17 163.24-6.29Q163.24-9.15 165.20-11.15Q167.16-13.16 171.29-13.86L178.86-15.09L178.86-16.02Q178.86-17.73 177.54-18.88Q176.22-20.02 174.11-20.02Q172.13-20.02 170.63-18.99Q169.14-17.95 168.48-16.32L164.34-18.39Q165-20.11 166.47-21.45Q167.95-22.79 169.97-23.56Q172-24.33 174.24-24.33Q177.06-24.33 179.21-23.28Q181.37-22.22 182.60-20.35Q183.83-18.48 183.83-16.02L183.83 0L179.08 0L179.08-2.77Q177.76-1.19 175.78-0.33Q173.80 0.53 171.34 0.53M168.43-6.47Q168.43-5.10 169.47-4.25Q170.50-3.39 172.13-3.39Q174.11-3.39 175.63-4.25Q177.14-5.10 178-6.60Q178.86-8.10 178.86-9.90L178.86-11.18L172.26-10.03Q170.28-9.68 169.36-8.76Q168.43-7.83 168.43-6.47 M199.28 0.26Q195.54 0.26 193.47-1.85Q191.40-3.96 191.40-7.79L191.40-19.32L187.22-19.32L187.22-23.80L187.88-23.80Q189.51-23.80 190.45-24.75Q191.40-25.70 191.40-27.41L191.40-29.26L196.37-29.26L196.37-23.80L201.78-23.80L201.78-19.32L196.37-19.32L196.37-8.01Q196.37-6.16 197.27-5.15Q198.18-4.14 200.33-4.14Q201.12-4.14 201.96-4.27L201.96 0Q200.60 0.26 199.28 0.26 M207.86-21.03L207.86-23.45Q209.31-23.80 210.08-24.75Q210.85-25.70 211.07-27.06L208.74-27.06L208.74-32.78L213.80-32.78L213.80-29.04Q213.80-25.83 212.30-23.74Q210.80-21.65 207.86-21.03 M229.59 0.53Q225.90 0.53 223.17-1.28Q220.44-3.08 219.34-6.12L223.17-7.92Q224.14-5.85 225.83-4.69Q227.52-3.52 229.59-3.52Q231.35-3.52 232.45-4.31Q233.55-5.10 233.55-6.47Q233.55-7.74 232.54-8.38Q231.53-9.02 230.38-9.33L226.64-10.38Q223.56-11.26 222.05-13.02Q220.53-14.78 220.53-17.20Q220.53-19.32 221.63-20.92Q222.73-22.53 224.64-23.43Q226.56-24.33 229.02-24.33Q232.28-24.33 234.83-22.73Q237.38-21.12 238.44-18.26L234.61-16.46Q233.86-18.17 232.34-19.18Q230.82-20.20 228.98-20.20Q227.30-20.20 226.36-19.43Q225.41-18.66 225.41-17.42Q225.41-16.15 226.36-15.55Q227.30-14.96 228.45-14.61L232.32-13.46Q235.22-12.63 236.83-10.85Q238.44-9.06 238.44-6.60Q238.44-4.49 237.31-2.88Q236.19-1.28 234.21-0.37Q232.23 0.53 229.59 0.53  M262.06 0.53Q258.63 0.53 255.79-1.08Q252.96-2.68 251.28-5.50Q249.61-8.32 249.61-11.92Q249.61-15.49 251.26-18.30Q252.91-21.12 255.75-22.73Q258.59-24.33 262.06-24.33Q265.54-24.33 268.36-22.73Q271.17-21.12 272.82-18.33Q274.47-15.53 274.47-11.92Q274.47-8.32 272.80-5.50Q271.13-2.68 268.31-1.08Q265.50 0.53 262.06 0.53M262.06-4.09Q264.13-4.09 265.76-5.10Q267.39-6.12 268.36-7.90Q269.32-9.68 269.32-11.92Q269.32-14.17 268.36-15.93Q267.39-17.69 265.76-18.70Q264.13-19.71 262.06-19.71Q260-19.71 258.35-18.70Q256.70-17.69 255.75-15.93Q254.80-14.17 254.80-11.92Q254.80-9.68 255.75-7.90Q256.70-6.12 258.35-5.10Q260-4.09 262.06-4.09 M284.06 0L279.09 0L279.09-23.80L283.84-23.80L283.84-20.90Q284.81-22.57 286.59-23.45Q288.38-24.33 290.58-24.33Q293.17-24.33 295.20-23.19Q297.22-22.04 298.39-20.02Q299.55-18 299.55-15.40L299.55 0L294.62 0L294.62-14.04Q294.62-16.68 293.15-18.19Q291.68-19.71 289.34-19.71Q287.01-19.71 285.54-18.19Q284.06-16.68 284.06-14.04  M317.11 0L312.14 0L312.14-23.80L316.89-23.80L316.89-20.90Q317.86-22.57 319.64-23.45Q321.42-24.33 323.62-24.33Q326.22-24.33 328.24-23.19Q330.26-22.04 331.43-20.02Q332.60-18 332.60-15.40L332.60 0L327.67 0L327.67-14.04Q327.67-16.68 326.19-18.19Q324.72-19.71 322.39-19.71Q320.06-19.71 318.58-18.19Q317.11-16.68 317.11-14.04 M348.88 0.53Q345.31 0.53 342.56-1.12Q339.81-2.77 338.27-5.61Q336.73-8.45 336.73-11.97Q336.73-15.53 338.27-18.33Q339.81-21.12 342.47-22.73Q345.14-24.33 348.48-24.33Q352.04-24.33 354.60-22.73Q357.15-21.12 358.49-18.50Q359.83-15.88 359.83-12.80Q359.83-12.23 359.79-11.62Q359.74-11 359.61-10.47L341.88-10.47Q342.10-7.44 344.10-5.65Q346.10-3.87 348.92-3.87Q351.08-3.87 352.57-4.84Q354.07-5.81 354.99-7.35L359.04-5.37Q357.94-2.82 355.21-1.14Q352.48 0.53 348.88 0.53M348.48-20.15Q346.02-20.15 344.23-18.66Q342.45-17.16 342.01-14.43L354.55-14.43Q354.42-16.94 352.68-18.55Q350.94-20.15 348.48-20.15 M371.36 0.53Q367.75 0.53 365.51-1.32Q363.26-3.17 363.26-6.29Q363.26-9.15 365.22-11.15Q367.18-13.16 371.32-13.86L378.88-15.09L378.88-16.02Q378.88-17.73 377.56-18.88Q376.24-20.02 374.13-20.02Q372.15-20.02 370.66-18.99Q369.16-17.95 368.50-16.32L364.36-18.39Q365.02-20.11 366.50-21.45Q367.97-22.79 370-23.56Q372.02-24.33 374.26-24.33Q377.08-24.33 379.24-23.28Q381.39-22.22 382.62-20.35Q383.86-18.48 383.86-16.02L383.86 0L379.10 0L379.10-2.77Q377.78-1.19 375.80-0.33Q373.82 0.53 371.36 0.53M368.46-6.47Q368.46-5.10 369.49-4.25Q370.52-3.39 372.15-3.39Q374.13-3.39 375.65-4.25Q377.17-5.10 378.03-6.60Q378.88-8.10 378.88-9.90L378.88-11.18L372.28-10.03Q370.30-9.68 369.38-8.76Q368.46-7.83 368.46-6.47 M394.42 0L389.44 0L389.44-23.80L394.20-23.80L394.20-20.72Q395.08-22.53 396.70-23.32Q398.33-24.11 400.53-24.11L401.98-24.11L401.98-19.58L399.92-19.58Q397.45-19.58 395.93-18.04Q394.42-16.50 394.42-13.73  M414.74 9.68Q413.86 9.68 413.01 9.53Q412.15 9.37 411.44 9.06L411.44 4.80Q411.97 4.93 412.72 5.04Q413.47 5.15 414.17 5.15Q416.24 5.15 417.23 4.25Q418.22 3.34 419.01 1.50L419.67 0L410.21-23.80L415.54-23.80L422.22-6.29L428.91-23.80L434.28-23.80L423.76 2.60Q422.49 5.76 420.31 7.72Q418.13 9.68 414.74 9.68 M448.49 0.53Q445.06 0.53 442.22-1.08Q439.38-2.68 437.71-5.50Q436.04-8.32 436.04-11.92Q436.04-15.49 437.69-18.30Q439.34-21.12 442.18-22.73Q445.02-24.33 448.49-24.33Q451.97-24.33 454.78-22.73Q457.60-21.12 459.25-18.33Q460.90-15.53 460.90-11.92Q460.90-8.32 459.23-5.50Q457.56-2.68 454.74-1.08Q451.92 0.53 448.49 0.53M448.49-4.09Q450.56-4.09 452.19-5.10Q453.82-6.12 454.78-7.90Q455.75-9.68 455.75-11.92Q455.75-14.17 454.78-15.93Q453.82-17.69 452.19-18.70Q450.56-19.71 448.49-19.71Q446.42-19.71 444.77-18.70Q443.12-17.69 442.18-15.93Q441.23-14.17 441.23-11.92Q441.23-9.68 442.18-7.90Q443.12-6.12 444.77-5.10Q446.42-4.09 448.49-4.09 M474.01 0.53Q471.33 0.53 469.30-0.68Q467.28-1.89 466.16-4.07Q465.04-6.25 465.04-9.11L465.04-23.80L470.01-23.80L470.01-9.55Q470.01-7.08 471.46-5.59Q472.91-4.09 475.24-4.09Q477.58-4.09 479.07-5.61Q480.57-7.13 480.57-9.77L480.57-23.80L485.50-23.80L485.50 0L480.79 0L480.79-2.90Q479.78-1.23 477.99-0.35Q476.21 0.53 474.01 0.53 M498.34 0L493.28 0L493.28-5.72L498.34-5.72" fill="#F4F6FB"/></g>
  <g transform="translate(96 478)"><path d="M12.50 0L1.69 0L1.69-16.39L12.50-16.39L12.50-14.08L4.29-14.08L4.29-9.37L12.06-9.37L12.06-7.06L4.29-7.06L4.29-2.31L12.50-2.31 M26.14 0L23.23 0L17.42-16.39L20.22-16.39L24.68-3.21L29.15-16.39L31.94-16.39 M48.64 0L37.84 0L37.84-16.39L48.64-16.39L48.64-14.08L40.44-14.08L40.44-9.37L48.20-9.37L48.20-7.06L40.44-7.06L40.44-2.31L48.64-2.31 M57.62 0L55.02 0L55.02-16.39L57.11-16.39L65.32-5.08L65.32-16.39L67.89-16.39L67.89 0L65.80 0L57.62-11.48 M80.72 0L78.14 0L78.14-14.08L73.79-14.08L73.79-16.39L85.01-16.39L85.01-14.08L80.72-14.08 M96.65 0.26Q95.08 0.26 93.77-0.31Q92.47-0.88 91.53-1.90Q90.60-2.93 90.18-4.25L92.38-5.17Q92.95-3.65 94.10-2.84Q95.26-2.02 96.76-2.02Q98.08-2.02 98.88-2.63Q99.68-3.23 99.68-4.25Q99.68-5.15 99.16-5.68Q98.65-6.20 97.68-6.51L94.60-7.48Q92.75-8.05 91.78-9.23Q90.82-10.41 90.82-11.99Q90.82-13.35 91.50-14.41Q92.18-15.47 93.37-16.06Q94.56-16.65 96.12-16.65Q97.57-16.65 98.79-16.14Q100.01-15.62 100.88-14.71Q101.75-13.79 102.15-12.63L99.99-11.68Q99.51-12.98 98.48-13.68Q97.46-14.39 96.12-14.39Q94.89-14.39 94.14-13.77Q93.39-13.16 93.39-12.12Q93.39-11.33 93.90-10.71Q94.40-10.10 95.44-9.79L98.30-8.89Q102.23-7.66 102.23-4.42Q102.23-3.04 101.52-1.98Q100.80-0.92 99.55-0.33Q98.30 0.26 96.65 0.26  M120.30-4.53L117.77-4.53L117.77-7.39L120.30-7.39  M138.91 0L136.31 0L136.31-16.39L138.73-16.39L144.28-8.69L149.73-16.39L152.15-16.39L152.15 0L149.58 0L149.58-11.73L144.36-4.62L144.10-4.62L138.91-11.88 M165.64 0.26Q163.79 0.26 162.38-0.51Q160.97-1.28 160.17-2.62Q159.37-3.96 159.37-5.68L159.37-16.39L161.96-16.39L161.96-5.79Q161.96-4.71 162.43-3.87Q162.89-3.04 163.72-2.57Q164.56-2.11 165.64-2.11Q166.72-2.11 167.55-2.57Q168.39-3.04 168.86-3.87Q169.33-4.71 169.33-5.79L169.33-16.39L171.91-16.39L171.91-5.68Q171.91-3.96 171.11-2.62Q170.30-1.28 168.89-0.51Q167.49 0.26 165.64 0.26 M184.87 0.26Q183.30 0.26 182-0.31Q180.69-0.88 179.75-1.90Q178.82-2.93 178.40-4.25L180.60-5.17Q181.17-3.65 182.33-2.84Q183.48-2.02 184.98-2.02Q186.30-2.02 187.10-2.63Q187.90-3.23 187.90-4.25Q187.90-5.15 187.39-5.68Q186.87-6.20 185.90-6.51L182.82-7.48Q180.97-8.05 180-9.23Q179.04-10.41 179.04-11.99Q179.04-13.35 179.72-14.41Q180.40-15.47 181.59-16.06Q182.78-16.65 184.34-16.65Q185.79-16.65 187.01-16.14Q188.23-15.62 189.10-14.71Q189.97-13.79 190.37-12.63L188.21-11.68Q187.73-12.98 186.70-13.68Q185.68-14.39 184.34-14.39Q183.11-14.39 182.36-13.77Q181.61-13.16 181.61-12.12Q181.61-11.33 182.12-10.71Q182.62-10.10 183.66-9.79L186.52-8.89Q190.45-7.66 190.45-4.42Q190.45-3.04 189.74-1.98Q189.02-0.92 187.77-0.33Q186.52 0.26 184.87 0.26 M199.91 0L197.32 0L197.32-16.39L199.91-16.39 M214.90 0.26Q213.16 0.26 211.67-0.36Q210.19-0.99 209.09-2.13Q207.99-3.28 207.38-4.82Q206.78-6.36 206.78-8.21Q206.78-10.03 207.38-11.57Q207.99-13.11 209.08-14.26Q210.17-15.40 211.65-16.03Q213.14-16.65 214.90-16.65Q216.61-16.65 217.99-16.06Q219.36-15.47 220.32-14.50Q221.28-13.53 221.69-12.43L219.36-11.33Q218.83-12.65 217.68-13.47Q216.52-14.30 214.90-14.30Q213.27-14.30 212.01-13.53Q210.76-12.76 210.07-11.38Q209.37-10.01 209.37-8.21Q209.37-6.38 210.07-5Q210.76-3.63 212.01-2.87Q213.27-2.11 214.90-2.11Q216.52-2.11 217.68-2.93Q218.83-3.74 219.36-5.06L221.69-3.96Q221.28-2.84 220.32-1.88Q219.36-0.92 217.99-0.33Q216.61 0.26 214.90 0.26  M239.51-4.53L236.98-4.53L236.98-7.39L239.51-7.39  M258.13 0L255.53 0L255.53-16.39L266.20-16.39L266.20-14.08L258.13-14.08L258.13-9.15L265.32-9.15L265.32-6.84L258.13-6.84 M283.14 0L272.34 0L272.34-16.39L283.14-16.39L283.14-14.08L274.93-14.08L274.93-9.37L282.70-9.37L282.70-7.06L274.93-7.06L274.93-2.31L283.14-2.31 M295.26 0.26Q293.70 0.26 292.39-0.31Q291.08-0.88 290.15-1.90Q289.21-2.93 288.79-4.25L290.99-5.17Q291.57-3.65 292.72-2.84Q293.88-2.02 295.37-2.02Q296.69-2.02 297.50-2.63Q298.30-3.23 298.30-4.25Q298.30-5.15 297.78-5.68Q297.26-6.20 296.30-6.51L293.22-7.48Q291.37-8.05 290.40-9.23Q289.43-10.41 289.43-11.99Q289.43-13.35 290.11-14.41Q290.80-15.47 291.98-16.06Q293.17-16.65 294.73-16.65Q296.19-16.65 297.41-16.14Q298.63-15.62 299.50-14.71Q300.37-13.79 300.76-12.63L298.61-11.68Q298.12-12.98 297.10-13.68Q296.08-14.39 294.73-14.39Q293.50-14.39 292.75-13.77Q292.01-13.16 292.01-12.12Q292.01-11.33 292.51-10.71Q293.02-10.10 294.05-9.79L296.91-8.89Q300.85-7.66 300.85-4.42Q300.85-3.04 300.14-1.98Q299.42-0.92 298.17-0.33Q296.91 0.26 295.26 0.26 M313.19 0L310.62 0L310.62-14.08L306.26-14.08L306.26-16.39L317.48-16.39L317.48-14.08L313.19-14.08 M325.97 0L323.38 0L323.38-16.39L325.97-16.39 M340.58 0L337.68 0L331.87-16.39L334.66-16.39L339.13-3.21L343.60-16.39L346.39-16.39 M352.51 0L349.73 0L355.50-16.39L358.71-16.39L364.47 0L361.70 0L360.45-3.67L353.78-3.67L352.51 0M357.10-13.51L354.53-5.98L359.66-5.98 M380.05 0L370.37 0L370.37-16.39L372.97-16.39L372.97-2.31L380.05-2.31 M391.93 0.26Q390.37 0.26 389.06-0.31Q387.75-0.88 386.82-1.90Q385.88-2.93 385.46-4.25L387.66-5.17Q388.23-3.65 389.39-2.84Q390.54-2.02 392.04-2.02Q393.36-2.02 394.16-2.63Q394.97-3.23 394.97-4.25Q394.97-5.15 394.45-5.68Q393.93-6.20 392.96-6.51L389.88-7.48Q388.04-8.05 387.07-9.23Q386.10-10.41 386.10-11.99Q386.10-13.35 386.78-14.41Q387.46-15.47 388.65-16.06Q389.84-16.65 391.40-16.65Q392.85-16.65 394.08-16.14Q395.30-15.62 396.17-14.71Q397.03-13.79 397.43-12.63L395.27-11.68Q394.79-12.98 393.77-13.68Q392.74-14.39 391.40-14.39Q390.17-14.39 389.42-13.77Q388.67-13.16 388.67-12.12Q388.67-11.33 389.18-10.71Q389.69-10.10 390.72-9.79L393.58-8.89Q397.52-7.66 397.52-4.42Q397.52-3.04 396.80-1.98Q396.09-0.92 394.83-0.33Q393.58 0.26 391.93 0.26  M415.58-4.53L413.05-4.53L413.05-7.39L415.58-7.39  M432.92 0L430.14 0L435.91-16.39L439.12-16.39L444.88 0L442.11 0L440.86-3.67L434.19-3.67L432.92 0M437.51-13.51L434.94-5.98L440.07-5.98 M456.48 0.26Q454.63 0.26 453.22-0.51Q451.81-1.28 451.01-2.62Q450.21-3.96 450.21-5.68L450.21-16.39L452.80-16.39L452.80-5.79Q452.80-4.71 453.27-3.87Q453.73-3.04 454.56-2.57Q455.40-2.11 456.48-2.11Q457.56-2.11 458.39-2.57Q459.23-3.04 459.70-3.87Q460.17-4.71 460.17-5.79L460.17-16.39L462.75-16.39L462.75-5.68Q462.75-3.96 461.94-2.62Q461.14-1.28 459.73-0.51Q458.33 0.26 456.48 0.26 M475.71 0.26Q474.14 0.26 472.83-0.31Q471.53-0.88 470.59-1.90Q469.66-2.93 469.24-4.25L471.44-5.17Q472.01-3.65 473.16-2.84Q474.32-2.02 475.82-2.02Q477.14-2.02 477.94-2.63Q478.74-3.23 478.74-4.25Q478.74-5.15 478.22-5.68Q477.71-6.20 476.74-6.51L473.66-7.48Q471.81-8.05 470.84-9.23Q469.88-10.41 469.88-11.99Q469.88-13.35 470.56-14.41Q471.24-15.47 472.43-16.06Q473.62-16.65 475.18-16.65Q476.63-16.65 477.85-16.14Q479.07-15.62 479.94-14.71Q480.81-13.79 481.21-12.63L479.05-11.68Q478.57-12.98 477.54-13.68Q476.52-14.39 475.18-14.39Q473.95-14.39 473.20-13.77Q472.45-13.16 472.45-12.12Q472.45-11.33 472.96-10.71Q473.46-10.10 474.50-9.79L477.36-8.89Q481.29-7.66 481.29-4.42Q481.29-3.04 480.58-1.98Q479.86-0.92 478.61-0.33Q477.36 0.26 475.71 0.26 M493.64 0L491.06 0L491.06-14.08L486.71-14.08L486.71-16.39L497.93-16.39L497.93-14.08L493.64-14.08 M506.42 0L503.82 0L503.82-16.39L509.78-16.39Q511.43-16.39 512.69-15.77Q513.94-15.16 514.66-14.01Q515.37-12.87 515.37-11.26Q515.37-9.55 514.52-8.35Q513.68-7.15 512.25-6.60L516.03 0L513.08 0L509.61-6.16L506.42-6.16L506.42 0M506.42-14.08L506.42-8.47L509.83-8.47Q511.15-8.47 511.96-9.23Q512.78-9.99 512.78-11.29Q512.78-12.56 511.96-13.32Q511.15-14.08 509.83-14.08 M523.49 0L520.72 0L526.48-16.39L529.69-16.39L535.46 0L532.69 0L531.43-3.67L524.77-3.67L523.49 0M528.09-13.51L525.51-5.98L530.64-5.98 M551.03 0L541.35 0L541.35-16.39L543.95-16.39L543.95-2.31L551.03-2.31 M559.77 0L557.17 0L557.17-16.39L559.77-16.39 M568.44 0L565.66 0L571.43-16.39L574.64-16.39L580.40 0L577.63 0L576.38-3.67L569.71-3.67L568.44 0M573.03-13.51L570.46-5.98L575.59-5.98" fill="#A8B0C0"/></g>
  <rect x="96" y="574" width="140" height="6" rx="3" fill="url(#og-sparkle-grad)"/>
</svg>