<svg xmlns="http://www.w3.org/2000/svg" viewBox="0 0 1600 1192" width="1600" height="1192">
    <defs>
      <linearGradient id="vg-grad" x1="0" y1="0" x2="1" y2="0">
        <stop offset="0" stop-color="#FF5A36"/>
        <stop offset="1" stop-color="#FF3FA4"/>
      </linearGradient>
    </defs>
    <rect width="1600" height="1192" fill="#FFFFFF"/>
    
      <g>
        <g transform="translate(80, 48)"><path d="M7.44 0.26Q5.87 0.26 4.56-0.31Q3.26-0.88 2.32-1.90Q1.39-2.93 0.97-4.25L3.17-5.17Q3.74-3.65 4.89-2.84Q6.05-2.02 7.55-2.02Q8.87-2.02 9.67-2.63Q10.47-3.23 10.47-4.25Q10.47-5.15 9.96-5.68Q9.44-6.20 8.47-6.51L5.39-7.48Q3.54-8.05 2.57-9.23Q1.61-10.41 1.61-11.99Q1.61-13.35 2.29-14.41Q2.97-15.47 4.16-16.06Q5.35-16.65 6.91-16.65Q8.36-16.65 9.58-16.14Q10.80-15.62 11.67-14.71Q12.54-13.79 12.94-12.63L10.78-11.68Q10.30-12.98 9.27-13.68Q8.25-14.39 6.91-14.39Q5.68-14.39 4.93-13.77Q4.18-13.16 4.18-12.12Q4.18-11.33 4.69-10.71Q5.19-10.10 6.23-9.79L9.09-8.89Q13.02-7.66 13.02-4.42Q13.02-3.04 12.31-1.98Q11.59-0.92 10.34-0.33Q9.09 0.26 7.44 0.26 M22.31 0.26Q20.59 0.26 19.17-0.54Q17.75-1.34 16.92-2.75Q16.08-4.16 16.08-5.96Q16.08-7.74 16.91-9.15Q17.73-10.56 19.15-11.36Q20.57-12.17 22.31-12.17Q24.05-12.17 25.45-11.36Q26.86-10.56 27.69-9.16Q28.51-7.77 28.51-5.96Q28.51-4.16 27.68-2.75Q26.84-1.34 25.43-0.54Q24.02 0.26 22.31 0.26M22.31-2.05Q23.34-2.05 24.16-2.55Q24.97-3.06 25.45-3.95Q25.94-4.84 25.94-5.96Q25.94-7.08 25.45-7.96Q24.97-8.84 24.16-9.35Q23.34-9.86 22.31-9.86Q21.27-9.86 20.45-9.35Q19.62-8.84 19.15-7.96Q18.68-7.08 18.68-5.96Q18.68-4.84 19.15-3.95Q19.62-3.06 20.45-2.55Q21.27-2.05 22.31-2.05 M35.29 0L32.82 0L32.82-9.66L30.62-9.66L30.62-11.90L32.82-11.90L32.82-12.52Q32.82-14.50 34.03-15.58Q35.24-16.65 37.16-16.65Q37.40-16.65 37.71-16.62Q38.02-16.59 38.21-16.54L38.21-14.39Q38.04-14.43 37.82-14.44Q37.60-14.45 37.47-14.45Q36.48-14.45 35.88-14Q35.29-13.55 35.29-12.52L35.29-11.90L38.02-11.90L38.02-9.66L35.29-9.66 M46.79 0.13Q44.92 0.13 43.89-0.92Q42.86-1.98 42.86-3.89L42.86-9.66L40.77-9.66L40.77-11.90L41.10-11.90Q41.91-11.90 42.38-12.37Q42.86-12.85 42.86-13.71L42.86-14.63L45.34-14.63L45.34-11.90L48.05-11.90L48.05-9.66L45.34-9.66L45.34-4Q45.34-3.08 45.79-2.57Q46.24-2.07 47.32-2.07Q47.72-2.07 48.14-2.13L48.14 0Q47.45 0.13 46.79 0.13 M56.80 0.26Q55.02 0.26 53.65-0.56Q52.27-1.39 51.50-2.80Q50.73-4.22 50.73-5.98Q50.73-7.77 51.50-9.16Q52.27-10.56 53.60-11.36Q54.93-12.17 56.61-12.17Q58.39-12.17 59.66-11.36Q60.94-10.56 61.61-9.25Q62.28-7.94 62.28-6.40Q62.28-6.12 62.26-5.81Q62.24-5.50 62.17-5.24L53.31-5.24Q53.42-3.72 54.42-2.83Q55.42-1.94 56.83-1.94Q57.90-1.94 58.65-2.42Q59.40-2.90 59.86-3.67L61.89-2.68Q61.34-1.41 59.97-0.57Q58.61 0.26 56.80 0.26M56.61-10.08Q55.37-10.08 54.48-9.33Q53.59-8.58 53.37-7.22L59.64-7.22Q59.58-8.47 58.71-9.27Q57.84-10.08 56.61-10.08 M68.07 0L65.58 0L65.58-11.90L67.96-11.90L67.96-10.36Q68.40-11.26 69.21-11.66Q70.03-12.06 71.13-12.06L71.85-12.06L71.85-9.79L70.82-9.79Q69.59-9.79 68.83-9.02Q68.07-8.25 68.07-6.86  M84.74 3.52L82.65 3.52Q79-0.70 79-6.45Q79-12.19 82.65-16.39L84.74-16.39Q81.58-11.75 81.58-6.45Q81.58-1.14 84.74 3.52 M92.16 0.26Q90.31 0.26 88.95-0.64Q87.58-1.54 87.03-3.06L88.95-3.96Q89.43-2.93 90.28-2.34Q91.12-1.76 92.16-1.76Q93.04-1.76 93.59-2.16Q94.14-2.55 94.14-3.23Q94.14-3.87 93.63-4.19Q93.13-4.51 92.55-4.66L90.68-5.19Q89.14-5.63 88.38-6.51Q87.63-7.39 87.63-8.60Q87.63-9.66 88.18-10.46Q88.73-11.26 89.68-11.71Q90.64-12.17 91.87-12.17Q93.50-12.17 94.78-11.36Q96.05-10.56 96.58-9.13L94.67-8.23Q94.29-9.09 93.53-9.59Q92.77-10.10 91.85-10.10Q91.01-10.10 90.54-9.71Q90.07-9.33 90.07-8.71Q90.07-8.07 90.54-7.78Q91.01-7.48 91.59-7.30L93.52-6.73Q94.97-6.31 95.78-5.42Q96.58-4.53 96.58-3.30Q96.58-2.24 96.02-1.44Q95.46-0.64 94.47-0.19Q93.48 0.26 92.16 0.26 M104.15 0.26Q102.81 0.26 101.79-0.34Q100.78-0.95 100.22-2.03Q99.66-3.12 99.66-4.55L99.66-11.90L102.15-11.90L102.15-4.77Q102.15-3.54 102.87-2.79Q103.60-2.05 104.76-2.05Q105.93-2.05 106.68-2.80Q107.43-3.56 107.43-4.88L107.43-11.90L109.89-11.90L109.89 0L107.54 0L107.54-1.45Q107.03-0.62 106.14-0.18Q105.25 0.26 104.15 0.26 M120.03 0.26Q118.78 0.26 117.73-0.20Q116.69-0.66 116.05-1.52L116.05 0L113.67 0L113.67-16.65L116.16-16.65L116.16-10.52Q116.82-11.31 117.81-11.74Q118.80-12.17 120.03-12.17Q121.73-12.17 123.08-11.35Q124.43-10.54 125.21-9.13Q125.99-7.72 125.99-5.96Q125.99-4.20 125.21-2.79Q124.43-1.39 123.08-0.56Q121.73 0.26 120.03 0.26M119.79-2.05Q120.82-2.05 121.65-2.55Q122.47-3.06 122.95-3.94Q123.42-4.82 123.42-5.96Q123.42-7.08 122.95-7.96Q122.47-8.84 121.65-9.35Q120.82-9.86 119.79-9.86Q118.73-9.86 117.92-9.35Q117.11-8.84 116.63-7.96Q116.16-7.08 116.16-5.96Q116.16-4.82 116.63-3.94Q117.11-3.06 117.92-2.55Q118.73-2.05 119.79-2.05 M134.22 0.13Q132.35 0.13 131.32-0.92Q130.28-1.98 130.28-3.89L130.28-9.66L128.19-9.66L128.19-11.90L128.52-11.90Q129.34-11.90 129.81-12.37Q130.28-12.85 130.28-13.71L130.28-14.63L132.77-14.63L132.77-11.90L135.48-11.90L135.48-9.66L132.77-9.66L132.77-4Q132.77-3.08 133.22-2.57Q133.67-2.07 134.75-2.07Q135.15-2.07 135.56-2.13L135.56 0Q134.88 0.13 134.22 0.13 M141.35 0L138.86 0L138.86-16.65L141.35-16.65 M150.72 0.26Q148.94 0.26 147.56-0.56Q146.19-1.39 145.42-2.80Q144.65-4.22 144.65-5.98Q144.65-7.77 145.42-9.16Q146.19-10.56 147.52-11.36Q148.85-12.17 150.52-12.17Q152.31-12.17 153.58-11.36Q154.86-10.56 155.53-9.25Q156.20-7.94 156.20-6.40Q156.20-6.12 156.18-5.81Q156.16-5.50 156.09-5.24L147.22-5.24Q147.33-3.72 148.33-2.83Q149.34-1.94 150.74-1.94Q151.82-1.94 152.57-2.42Q153.32-2.90 153.78-3.67L155.80-2.68Q155.25-1.41 153.89-0.57Q152.53 0.26 150.72 0.26M150.52-10.08Q149.29-10.08 148.40-9.33Q147.51-8.58 147.29-7.22L153.56-7.22Q153.49-8.47 152.63-9.27Q151.76-10.08 150.52-10.08  M169.73 0.26Q168.01 0.26 166.66-0.56Q165.31-1.39 164.53-2.79Q163.75-4.20 163.75-5.96Q163.75-7.72 164.53-9.13Q165.31-10.54 166.66-11.35Q168.01-12.17 169.71-12.17Q170.94-12.17 171.93-11.74Q172.92-11.31 173.60-10.52L173.60-16.65L176.07-16.65L176.07 0L173.71 0L173.71-1.52Q173.05-0.66 172.01-0.20Q170.96 0.26 169.73 0.26M169.97-2.05Q171.01-2.05 171.82-2.55Q172.63-3.06 173.12-3.94Q173.60-4.82 173.60-5.96Q173.60-7.08 173.12-7.96Q172.63-8.84 171.82-9.35Q171.01-9.86 169.97-9.86Q168.92-9.86 168.09-9.35Q167.27-8.84 166.80-7.96Q166.34-7.08 166.34-5.96Q166.34-4.82 166.80-3.94Q167.27-3.06 168.09-2.55Q168.92-2.05 169.97-2.05 M185.59 0.26Q183.88 0.26 182.46-0.54Q181.04-1.34 180.20-2.75Q179.37-4.16 179.37-5.96Q179.37-7.74 180.19-9.15Q181.02-10.56 182.44-11.36Q183.85-12.17 185.59-12.17Q187.33-12.17 188.74-11.36Q190.15-10.56 190.97-9.16Q191.80-7.77 191.80-5.96Q191.80-4.16 190.96-2.75Q190.12-1.34 188.72-0.54Q187.31 0.26 185.59 0.26M185.59-2.05Q186.63-2.05 187.44-2.55Q188.25-3.06 188.74-3.95Q189.22-4.84 189.22-5.96Q189.22-7.08 188.74-7.96Q188.25-8.84 187.44-9.35Q186.63-9.86 185.59-9.86Q184.56-9.86 183.73-9.35Q182.91-8.84 182.44-7.96Q181.96-7.08 181.96-5.96Q181.96-4.84 182.44-3.95Q182.91-3.06 183.73-2.55Q184.56-2.05 185.59-2.05 M200.02 0.13Q198.15 0.13 197.12-0.92Q196.09-1.98 196.09-3.89L196.09-9.66L194-9.66L194-11.90L194.33-11.90Q195.14-11.90 195.61-12.37Q196.09-12.85 196.09-13.71L196.09-14.63L198.57-14.63L198.57-11.90L201.28-11.90L201.28-9.66L198.57-9.66L198.57-4Q198.57-3.08 199.02-2.57Q199.47-2.07 200.55-2.07Q200.95-2.07 201.37-2.13L201.37 0Q200.68 0.13 200.02 0.13 M205.99 3.52L203.90 3.52Q207.06-1.14 207.06-6.45Q207.06-11.75 203.90-16.39L205.99-16.39Q209.66-12.19 209.66-6.45Q209.66-0.70 205.99 3.52" fill="#3F465C"/></g>
        <rect x="40" y="60" width="1520" height="320" fill="#F8F9FF" rx="20"/>
        <g transform="translate(340, 89.65517241379308) scale(1.3793103448275863)">
          <g transform="translate(8, 179)">
            <path d="M44.20 0L13.20 0L13.20-149L115.20-149L115.20-122L44.20-122L44.20-84.20L105.20-84.20L105.20-57.20L44.20-57.20 M178 2.40Q160.60 2.40 147.80-5.30Q135-13 128-26Q121-39 121-54.80Q121-71.20 128.30-84Q135.60-96.80 148-104.20Q160.40-111.60 176-111.60Q193.40-111.60 205.40-104.40Q217.40-97.20 223.70-85.10Q230-73 230-57.80Q230-54.60 229.70-51.50Q229.40-48.40 228.60-46.20L152.20-46.20Q153.40-36 160.40-29.80Q167.40-23.60 178.40-23.60Q186.40-23.60 192.10-26.80Q197.80-30 201-35.60L225-24.20Q220-12.20 207.40-4.90Q194.80 2.40 178 2.40M176-87.60Q167.20-87.60 161.10-82.60Q155-77.60 152.80-68.20L198.20-68.20Q197.20-76.80 191.20-82.20Q185.20-87.60 176-87.60 M289.40 2.40Q271.40 2.40 258.10-6.10Q244.80-14.60 240-29L262-39.40Q266.20-30.60 273.40-25.60Q280.60-20.60 289.40-20.60Q302.60-20.60 302.60-30.40Q302.60-37 291.80-40L273.20-45.20Q259.80-49 252.60-57.50Q245.40-66 245.40-77.60Q245.40-87.80 250.60-95.40Q255.80-103 265.20-107.30Q274.60-111.60 286.80-111.60Q302.80-111.60 314.90-104.10Q327-96.60 332-83L309.80-72.60Q307.40-79.40 301.10-83.50Q294.80-87.60 286.80-87.60Q281-87.60 277.70-85.20Q274.40-82.80 274.40-78.60Q274.40-72.20 286.20-68.80L303.60-63.60Q317.20-59.60 324.40-51.50Q331.60-43.40 331.60-31.60Q331.60-16.40 320-7Q308.40 2.40 289.40 2.40 M401.20 1.20Q381.40 1.20 370.50-9.50Q359.60-20.20 359.60-39.40L359.60-83.20L341.20-83.20L341.20-109.20L342.20-109.20Q359.60-109.20 359.60-126L359.60-134L389.60-134L389.60-109.20L415.20-109.20L415.20-83.20L389.60-83.20L389.60-41.40Q389.60-24.80 408.20-24.80Q411-24.80 415.20-25.40L415.20 0Q412.20 0.40 408.40 0.80Q404.60 1.20 401.20 1.20 M461.80 0L431.80 0L431.80-151.40L461.80-151.40 M587 2.40Q570.80 2.40 557.50-5Q544.20-12.40 536.30-25.30Q528.40-38.20 528.40-54.60Q528.40-71.20 536.30-84Q544.20-96.80 557.50-104.20Q570.80-111.60 587-111.60Q603.20-111.60 616.40-104.20Q629.60-96.80 637.50-84Q645.40-71.20 645.40-54.60Q645.40-38.20 637.50-25.30Q629.60-12.40 616.40-5Q603.20 2.40 587 2.40M587-24.60Q599.20-24.60 606.80-33Q614.40-41.40 614.40-54.60Q614.40-67.60 606.80-76.10Q599.20-84.60 587-84.60Q574.80-84.60 567.10-76.10Q559.40-67.60 559.40-54.60Q559.40-41.40 567.10-33Q574.80-24.60 587-24.60" fill="#0B1C30"/>
            <path d="M 484.8 -94 a 13 13 0 0 1 26 0 L 510.8 -13 a 13 13 0 0 1 -26 0 Z" fill="#0B1C30"/>
            <path d="M 497.8 -169 L 509.35 -159.55 L 518.8 -148 L 509.35 -136.45 L 497.8 -127 L 486.25 -136.45 L 476.8 -148 L 486.25 -159.55 Z" fill="url(#vg-grad)"/>
          </g>
        </g>
      </g>
    

      <g>
        <g transform="translate(80, 432)"><path d="M9.33 0.26Q7.59 0.26 6.10-0.36Q4.62-0.99 3.52-2.13Q2.42-3.28 1.82-4.82Q1.21-6.36 1.21-8.21Q1.21-10.03 1.82-11.57Q2.42-13.11 3.51-14.26Q4.60-15.40 6.08-16.03Q7.57-16.65 9.33-16.65Q11.04-16.65 12.42-16.06Q13.79-15.47 14.75-14.50Q15.71-13.53 16.13-12.43L13.79-11.33Q13.27-12.65 12.11-13.47Q10.96-14.30 9.33-14.30Q7.70-14.30 6.45-13.53Q5.19-12.76 4.50-11.38Q3.81-10.01 3.81-8.21Q3.81-6.38 4.50-5Q5.19-3.63 6.45-2.87Q7.70-2.11 9.33-2.11Q10.96-2.11 12.11-2.93Q13.27-3.74 13.79-5.06L16.13-3.96Q15.71-2.84 14.75-1.88Q13.79-0.92 12.42-0.33Q11.04 0.26 9.33 0.26 M23.67 0.26Q22.33 0.26 21.32-0.34Q20.31-0.95 19.75-2.03Q19.18-3.12 19.18-4.55L19.18-11.90L21.67-11.90L21.67-4.77Q21.67-3.54 22.40-2.79Q23.12-2.05 24.29-2.05Q25.45-2.05 26.20-2.80Q26.95-3.56 26.95-4.88L26.95-11.90L29.41-11.90L29.41 0L27.06 0L27.06-1.45Q26.55-0.62 25.66-0.18Q24.77 0.26 23.67 0.26 M35.68 0L33.20 0L33.20-11.90L35.57-11.90L35.57-10.36Q36.01-11.26 36.83-11.66Q37.64-12.06 38.74-12.06L39.47-12.06L39.47-9.79L38.43-9.79Q37.20-9.79 36.44-9.02Q35.68-8.25 35.68-6.86 M44.53 0L42.04 0L42.04-11.90L44.42-11.90L44.42-10.36Q44.86-11.26 45.67-11.66Q46.49-12.06 47.59-12.06L48.31-12.06L48.31-9.79L47.28-9.79Q46.05-9.79 45.29-9.02Q44.53-8.25 44.53-6.86 M56.47 0.26Q54.69 0.26 53.32-0.56Q51.94-1.39 51.17-2.80Q50.40-4.22 50.40-5.98Q50.40-7.77 51.17-9.16Q51.94-10.56 53.27-11.36Q54.60-12.17 56.28-12.17Q58.06-12.17 59.33-11.36Q60.61-10.56 61.28-9.25Q61.95-7.94 61.95-6.40Q61.95-6.12 61.93-5.81Q61.91-5.50 61.84-5.24L52.98-5.24Q53.09-3.72 54.09-2.83Q55.09-1.94 56.50-1.94Q57.57-1.94 58.32-2.42Q59.07-2.90 59.53-3.67L61.56-2.68Q61.01-1.41 59.64-0.57Q58.28 0.26 56.47 0.26M56.28-10.08Q55.04-10.08 54.15-9.33Q53.26-8.58 53.04-7.22L59.31-7.22Q59.25-8.47 58.38-9.27Q57.51-10.08 56.28-10.08 M67.74 0L65.25 0L65.25-11.90L67.63-11.90L67.63-10.45Q68.11-11.29 69-11.73Q69.89-12.17 70.99-12.17Q72.29-12.17 73.30-11.59Q74.32-11.02 74.90-10.01Q75.48-9 75.48-7.70L75.48 0L73.02 0L73.02-7.02Q73.02-8.34 72.28-9.10Q71.54-9.86 70.38-9.86Q69.21-9.86 68.47-9.10Q67.74-8.34 67.74-7.02 M84.17 0.13Q82.30 0.13 81.27-0.92Q80.23-1.98 80.23-3.89L80.23-9.66L78.14-9.66L78.14-11.90L78.47-11.90Q79.29-11.90 79.76-12.37Q80.23-12.85 80.23-13.71L80.23-14.63L82.72-14.63L82.72-11.90L85.43-11.90L85.43-9.66L82.72-9.66L82.72-4Q82.72-3.08 83.17-2.57Q83.62-2.07 84.70-2.07Q85.10-2.07 85.51-2.13L85.51 0Q84.83 0.13 84.17 0.13  M99.13 3.52L97.04 3.52Q93.39-0.70 93.39-6.45Q93.39-12.19 97.04-16.39L99.13-16.39Q95.96-11.75 95.96-6.45Q95.96-1.14 99.13 3.52 M104.63 0L102.15 0L102.15-11.90L104.52-11.90L104.52-10.36Q104.96-11.26 105.78-11.66Q106.59-12.06 107.69-12.06L108.42-12.06L108.42-9.79L107.38-9.79Q106.15-9.79 105.39-9.02Q104.63-8.25 104.63-6.86 M116.58 0.26Q114.80 0.26 113.42-0.56Q112.05-1.39 111.28-2.80Q110.51-4.22 110.51-5.98Q110.51-7.77 111.28-9.16Q112.05-10.56 113.38-11.36Q114.71-12.17 116.38-12.17Q118.16-12.17 119.44-11.36Q120.71-10.56 121.38-9.25Q122.06-7.94 122.06-6.40Q122.06-6.12 122.03-5.81Q122.01-5.50 121.95-5.24L113.08-5.24Q113.19-3.72 114.19-2.83Q115.19-1.94 116.60-1.94Q117.68-1.94 118.43-2.42Q119.17-2.90 119.64-3.67L121.66-2.68Q121.11-1.41 119.75-0.57Q118.38 0.26 116.58 0.26M116.38-10.08Q115.15-10.08 114.26-9.33Q113.37-8.58 113.15-7.22L119.42-7.22Q119.35-8.47 118.48-9.27Q117.61-10.08 116.38-10.08 M131.01 0.26Q129.23 0.26 127.84-0.55Q126.46-1.36 125.66-2.78Q124.87-4.20 124.87-5.98Q124.87-7.74 125.66-9.14Q126.46-10.54 127.84-11.35Q129.23-12.17 131.01-12.17Q132.22-12.17 133.28-11.74Q134.33-11.31 135.11-10.56Q135.89-9.81 136.27-8.82L134.09-7.81Q133.69-8.73 132.88-9.29Q132.07-9.86 131.01-9.86Q129.98-9.86 129.17-9.35Q128.37-8.84 127.92-7.96Q127.47-7.08 127.47-5.96Q127.47-4.82 127.92-3.94Q128.37-3.06 129.17-2.55Q129.98-2.05 131.01-2.05Q132.09-2.05 132.89-2.61Q133.69-3.17 134.09-4.11L136.27-3.08Q135.89-2.11 135.12-1.36Q134.35-0.62 133.29-0.18Q132.22 0.26 131.01 0.26 M145.31 0.26Q143.59 0.26 142.18-0.54Q140.76-1.34 139.92-2.75Q139.08-4.16 139.08-5.96Q139.08-7.74 139.91-9.15Q140.73-10.56 142.15-11.36Q143.57-12.17 145.31-12.17Q147.05-12.17 148.46-11.36Q149.86-10.56 150.69-9.16Q151.51-7.77 151.51-5.96Q151.51-4.16 150.68-2.75Q149.84-1.34 148.43-0.54Q147.03 0.26 145.31 0.26M145.31-2.05Q146.34-2.05 147.16-2.55Q147.97-3.06 148.46-3.95Q148.94-4.84 148.94-5.96Q148.94-7.08 148.46-7.96Q147.97-8.84 147.16-9.35Q146.34-9.86 145.31-9.86Q144.28-9.86 143.45-9.35Q142.63-8.84 142.15-7.96Q141.68-7.08 141.68-5.96Q141.68-4.84 142.15-3.95Q142.63-3.06 143.45-2.55Q144.28-2.05 145.31-2.05 M157.30 0L154.81 0L154.81-11.90L157.19-11.90L157.19-10.43Q157.67-11.29 158.54-11.73Q159.41-12.17 160.49-12.17Q161.70-12.17 162.69-11.62Q163.68-11.07 164.21-10.14Q164.82-11.15 165.79-11.66Q166.76-12.17 167.95-12.17Q169.18-12.17 170.18-11.59Q171.18-11.02 171.78-10.01Q172.37-9 172.37-7.70L172.37 0L169.88 0L169.88-7.02Q169.88-8.34 169.19-9.10Q168.50-9.86 167.38-9.86Q166.25-9.86 165.54-9.10Q164.82-8.34 164.82-7.02L164.82 0L162.36 0L162.36-7.02Q162.36-8.34 161.66-9.10Q160.95-9.86 159.83-9.86Q158.71-9.86 158-9.10Q157.30-8.34 157.30-7.02 M178.40 0L175.91 0L175.91-11.90L178.29-11.90L178.29-10.43Q178.77-11.29 179.64-11.73Q180.51-12.17 181.59-12.17Q182.80-12.17 183.79-11.62Q184.78-11.07 185.31-10.14Q185.92-11.15 186.89-11.66Q187.86-12.17 189.05-12.17Q190.28-12.17 191.28-11.59Q192.28-11.02 192.87-10.01Q193.47-9 193.47-7.70L193.47 0L190.98 0L190.98-7.02Q190.98-8.34 190.29-9.10Q189.60-9.86 188.47-9.86Q187.35-9.86 186.64-9.10Q185.92-8.34 185.92-7.02L185.92 0L183.46 0L183.46-7.02Q183.46-8.34 182.75-9.10Q182.05-9.86 180.93-9.86Q179.81-9.86 179.10-9.10Q178.40-8.34 178.40-7.02 M202.60 0.26Q200.82 0.26 199.44-0.56Q198.07-1.39 197.30-2.80Q196.53-4.22 196.53-5.98Q196.53-7.77 197.30-9.16Q198.07-10.56 199.40-11.36Q200.73-12.17 202.40-12.17Q204.18-12.17 205.46-11.36Q206.73-10.56 207.41-9.25Q208.08-7.94 208.08-6.40Q208.08-6.12 208.05-5.81Q208.03-5.50 207.97-5.24L199.10-5.24Q199.21-3.72 200.21-2.83Q201.21-1.94 202.62-1.94Q203.70-1.94 204.45-2.42Q205.19-2.90 205.66-3.67L207.68-2.68Q207.13-1.41 205.77-0.57Q204.40 0.26 202.60 0.26M202.40-10.08Q201.17-10.08 200.28-9.33Q199.39-8.58 199.17-7.22L205.44-7.22Q205.37-8.47 204.50-9.27Q203.63-10.08 202.40-10.08 M213.86 0L211.38 0L211.38-11.90L213.75-11.90L213.75-10.45Q214.24-11.29 215.13-11.73Q216.02-12.17 217.12-12.17Q218.42-12.17 219.43-11.59Q220.44-11.02 221.02-10.01Q221.61-9 221.61-7.70L221.61 0L219.14 0L219.14-7.02Q219.14-8.34 218.41-9.10Q217.67-9.86 216.50-9.86Q215.34-9.86 214.60-9.10Q213.86-8.34 213.86-7.02 M230.65 0.26Q228.93 0.26 227.58-0.56Q226.23-1.39 225.44-2.79Q224.66-4.20 224.66-5.96Q224.66-7.72 225.44-9.13Q226.23-10.54 227.58-11.35Q228.93-12.17 230.63-12.17Q231.86-12.17 232.85-11.74Q233.84-11.31 234.52-10.52L234.52-16.65L236.98-16.65L236.98 0L234.63 0L234.63-1.52Q233.97-0.66 232.93-0.20Q231.88 0.26 230.65 0.26M230.89-2.05Q231.92-2.05 232.74-2.55Q233.55-3.06 234.04-3.94Q234.52-4.82 234.52-5.96Q234.52-7.08 234.04-7.96Q233.55-8.84 232.74-9.35Q231.92-9.86 230.89-9.86Q229.83-9.86 229.01-9.35Q228.18-8.84 227.72-7.96Q227.26-7.08 227.26-5.96Q227.26-4.82 227.72-3.94Q228.18-3.06 229.01-2.55Q229.83-2.05 230.89-2.05 M246.36 0.26Q244.57 0.26 243.20-0.56Q241.82-1.39 241.05-2.80Q240.28-4.22 240.28-5.98Q240.28-7.77 241.05-9.16Q241.82-10.56 243.16-11.36Q244.49-12.17 246.16-12.17Q247.94-12.17 249.22-11.36Q250.49-10.56 251.16-9.25Q251.83-7.94 251.83-6.40Q251.83-6.12 251.81-5.81Q251.79-5.50 251.72-5.24L242.86-5.24Q242.97-3.72 243.97-2.83Q244.97-1.94 246.38-1.94Q247.46-1.94 248.20-2.42Q248.95-2.90 249.41-3.67L251.44-2.68Q250.89-1.41 249.52-0.57Q248.16 0.26 246.36 0.26M246.16-10.08Q244.93-10.08 244.03-9.33Q243.14-8.58 242.92-7.22L249.19-7.22Q249.13-8.47 248.26-9.27Q247.39-10.08 246.16-10.08 M260.63 0.26Q258.92 0.26 257.56-0.56Q256.21-1.39 255.43-2.79Q254.65-4.20 254.65-5.96Q254.65-7.72 255.43-9.13Q256.21-10.54 257.56-11.35Q258.92-12.17 260.61-12.17Q261.84-12.17 262.83-11.74Q263.82-11.31 264.51-10.52L264.51-16.65L266.97-16.65L266.97 0L264.62 0L264.62-1.52Q263.96-0.66 262.91-0.20Q261.87 0.26 260.63 0.26M260.88-2.05Q261.91-2.05 262.72-2.55Q263.54-3.06 264.02-3.94Q264.51-4.82 264.51-5.96Q264.51-7.08 264.02-7.96Q263.54-8.84 262.72-9.35Q261.91-9.86 260.88-9.86Q259.82-9.86 259-9.35Q258.17-8.84 257.71-7.96Q257.25-7.08 257.25-5.96Q257.25-4.82 257.71-3.94Q258.17-3.06 259-2.55Q259.82-2.05 260.88-2.05 M272.07 3.52L269.98 3.52Q273.15-1.14 273.15-6.45Q273.15-11.75 269.98-16.39L272.07-16.39Q275.75-12.19 275.75-6.45Q275.75-0.70 272.07 3.52" fill="#3F465C"/></g>
        <rect x="40" y="444" width="1520" height="320" fill="#F8F9FF" rx="20"/>
        <g transform="translate(340, 464.6896551724138) scale(1.3793103448275863)">
          <g transform="translate(8, 192)">
            <path d="M44.20 0L13.20 0L13.20-149L115.20-149L115.20-122L44.20-122L44.20-84.20L105.20-84.20L105.20-57.20L44.20-57.20 M178 2.40Q160.60 2.40 147.80-5.30Q135-13 128-26Q121-39 121-54.80Q121-71.20 128.30-84Q135.60-96.80 148-104.20Q160.40-111.60 176-111.60Q193.40-111.60 205.40-104.40Q217.40-97.20 223.70-85.10Q230-73 230-57.80Q230-54.60 229.70-51.50Q229.40-48.40 228.60-46.20L152.20-46.20Q153.40-36 160.40-29.80Q167.40-23.60 178.40-23.60Q186.40-23.60 192.10-26.80Q197.80-30 201-35.60L225-24.20Q220-12.20 207.40-4.90Q194.80 2.40 178 2.40M176-87.60Q167.20-87.60 161.10-82.60Q155-77.60 152.80-68.20L198.20-68.20Q197.20-76.80 191.20-82.20Q185.20-87.60 176-87.60 M289.40 2.40Q271.40 2.40 258.10-6.10Q244.80-14.60 240-29L262-39.40Q266.20-30.60 273.40-25.60Q280.60-20.60 289.40-20.60Q302.60-20.60 302.60-30.40Q302.60-37 291.80-40L273.20-45.20Q259.80-49 252.60-57.50Q245.40-66 245.40-77.60Q245.40-87.80 250.60-95.40Q255.80-103 265.20-107.30Q274.60-111.60 286.80-111.60Q302.80-111.60 314.90-104.10Q327-96.60 332-83L309.80-72.60Q307.40-79.40 301.10-83.50Q294.80-87.60 286.80-87.60Q281-87.60 277.70-85.20Q274.40-82.80 274.40-78.60Q274.40-72.20 286.20-68.80L303.60-63.60Q317.20-59.60 324.40-51.50Q331.60-43.40 331.60-31.60Q331.60-16.40 320-7Q308.40 2.40 289.40 2.40 M401.20 1.20Q381.40 1.20 370.50-9.50Q359.60-20.20 359.60-39.40L359.60-83.20L341.20-83.20L341.20-109.20L342.20-109.20Q359.60-109.20 359.60-126L359.60-134L389.60-134L389.60-109.20L415.20-109.20L415.20-83.20L389.60-83.20L389.60-41.40Q389.60-24.80 408.20-24.80Q411-24.80 415.20-25.40L415.20 0Q412.20 0.40 408.40 0.80Q404.60 1.20 401.20 1.20 M461.80 0L431.80 0L431.80-151.40L461.80-151.40 M587 2.40Q570.80 2.40 557.50-5Q544.20-12.40 536.30-25.30Q528.40-38.20 528.40-54.60Q528.40-71.20 536.30-84Q544.20-96.80 557.50-104.20Q570.80-111.60 587-111.60Q603.20-111.60 616.40-104.20Q629.60-96.80 637.50-84Q645.40-71.20 645.40-54.60Q645.40-38.20 637.50-25.30Q629.60-12.40 616.40-5Q603.20 2.40 587 2.40M587-24.60Q599.20-24.60 606.80-33Q614.40-41.40 614.40-54.60Q614.40-67.60 606.80-76.10Q599.20-84.60 587-84.60Q574.80-84.60 567.10-76.10Q559.40-67.60 559.40-54.60Q559.40-41.40 567.10-33Q574.80-24.60 587-24.60" fill="#0B1C30"/>
            <path d="M 484.8 -94 a 13 13 0 0 1 26 0 L 510.8 -13 a 13 13 0 0 1 -26 0 Z" fill="#0B1C30"/>
            <path d="M 497.8 -182 L 506.90000000000003 -165.1 L 523.8 -156 L 506.90000000000003 -146.9 L 497.8 -130 L 488.7 -146.9 L 471.8 -156 L 488.7 -165.1 Z" fill="url(#vg-grad)"/>
          </g>
        </g>
      </g>
    

      <g>
        <g transform="translate(80, 816)"><path d="M8.62 0L1.69 0L1.69-16.39L8.60-16.39Q10.91-16.39 12.24-15.19Q13.57-13.99 13.57-11.95Q13.57-11.02 13.21-10.22Q12.85-9.42 12.10-8.82Q13.24-8.14 13.75-7.13Q14.26-6.12 14.26-4.95Q14.26-2.62 12.75-1.31Q11.24 0 8.62 0M4.29-14.15L4.29-9.86L8.67-9.86Q9.72-9.86 10.36-10.46Q11-11.07 11-12.06Q11-13.02 10.36-13.58Q9.72-14.15 8.67-14.15L4.29-14.15M4.29-7.57L4.29-2.31L8.82-2.31Q10.10-2.31 10.88-3.01Q11.66-3.72 11.66-4.93Q11.66-6.12 10.88-6.84Q10.10-7.57 8.82-7.57 M23.30 0.26Q21.58 0.26 20.16-0.54Q18.74-1.34 17.91-2.75Q17.07-4.16 17.07-5.96Q17.07-7.74 17.90-9.15Q18.72-10.56 20.14-11.36Q21.56-12.17 23.30-12.17Q25.04-12.17 26.44-11.36Q27.85-10.56 28.68-9.16Q29.50-7.77 29.50-5.96Q29.50-4.16 28.67-2.75Q27.83-1.34 26.42-0.54Q25.01 0.26 23.30 0.26M23.30-2.05Q24.33-2.05 25.15-2.55Q25.96-3.06 26.44-3.95Q26.93-4.84 26.93-5.96Q26.93-7.08 26.44-7.96Q25.96-8.84 25.15-9.35Q24.33-9.86 23.30-9.86Q22.26-9.86 21.44-9.35Q20.61-8.84 20.14-7.96Q19.67-7.08 19.67-5.96Q19.67-4.84 20.14-3.95Q20.61-3.06 21.44-2.55Q22.26-2.05 23.30-2.05 M35.29 0L32.80 0L32.80-16.65L35.29-16.65 M44.57 0.26Q42.86 0.26 41.50-0.56Q40.15-1.39 39.37-2.79Q38.59-4.20 38.59-5.96Q38.59-7.72 39.37-9.13Q40.15-10.54 41.50-11.35Q42.86-12.17 44.55-12.17Q45.78-12.17 46.77-11.74Q47.76-11.31 48.44-10.52L48.44-16.65L50.91-16.65L50.91 0L48.55 0L48.55-1.52Q47.89-0.66 46.85-0.20Q45.80 0.26 44.57 0.26M44.81-2.05Q45.85-2.05 46.66-2.55Q47.48-3.06 47.96-3.94Q48.44-4.82 48.44-5.96Q48.44-7.08 47.96-7.96Q47.48-8.84 46.66-9.35Q45.85-9.86 44.81-9.86Q43.76-9.86 42.93-9.35Q42.11-8.84 41.65-7.96Q41.18-7.08 41.18-5.96Q41.18-4.82 41.65-3.94Q42.11-3.06 42.93-2.55Q43.76-2.05 44.81-2.05 M60.28 0.26Q58.50 0.26 57.12-0.56Q55.75-1.39 54.98-2.80Q54.21-4.22 54.21-5.98Q54.21-7.77 54.98-9.16Q55.75-10.56 57.08-11.36Q58.41-12.17 60.08-12.17Q61.86-12.17 63.14-11.36Q64.42-10.56 65.09-9.25Q65.76-7.94 65.76-6.40Q65.76-6.12 65.74-5.81Q65.71-5.50 65.65-5.24L56.78-5.24Q56.89-3.72 57.89-2.83Q58.89-1.94 60.30-1.94Q61.38-1.94 62.13-2.42Q62.88-2.90 63.34-3.67L65.36-2.68Q64.81-1.41 63.45-0.57Q62.08 0.26 60.28 0.26M60.08-10.08Q58.85-10.08 57.96-9.33Q57.07-8.58 56.85-7.22L63.12-7.22Q63.05-8.47 62.18-9.27Q61.31-10.08 60.08-10.08 M71.54 0L69.06 0L69.06-11.90L71.43-11.90L71.43-10.36Q71.87-11.26 72.69-11.66Q73.50-12.06 74.60-12.06L75.33-12.06L75.33-9.79L74.29-9.79Q73.06-9.79 72.30-9.02Q71.54-8.25 71.54-6.86  M88.22 3.52L86.13 3.52Q82.48-0.70 82.48-6.45Q82.48-12.19 86.13-16.39L88.22-16.39Q85.05-11.75 85.05-6.45Q85.05-1.14 88.22 3.52 M95.04 0L92.58 0L92.58-9.66L90.38-9.66L90.38-11.90L92.58-11.90L92.58-12.52Q92.58-14.50 93.79-15.58Q95-16.65 96.91-16.65Q97.15-16.65 97.46-16.62Q97.77-16.59 97.97-16.54L97.97-14.39Q97.79-14.43 97.57-14.44Q97.35-14.45 97.22-14.45Q96.23-14.45 95.63-14Q95.04-13.55 95.04-12.52L95.04-11.90L97.77-11.90L97.77-9.66L95.04-9.66 M106.11 0.26Q104.32 0.26 102.95-0.56Q101.57-1.39 100.80-2.80Q100.03-4.22 100.03-5.98Q100.03-7.77 100.80-9.16Q101.57-10.56 102.91-11.36Q104.24-12.17 105.91-12.17Q107.69-12.17 108.97-11.36Q110.24-10.56 110.91-9.25Q111.58-7.94 111.58-6.40Q111.58-6.12 111.56-5.81Q111.54-5.50 111.47-5.24L102.61-5.24Q102.72-3.72 103.72-2.83Q104.72-1.94 106.13-1.94Q107.21-1.94 107.95-2.42Q108.70-2.90 109.16-3.67L111.19-2.68Q110.64-1.41 109.27-0.57Q107.91 0.26 106.11 0.26M105.91-10.08Q104.68-10.08 103.78-9.33Q102.89-8.58 102.67-7.22L108.94-7.22Q108.88-8.47 108.01-9.27Q107.14-10.08 105.91-10.08 M119.28 0.26Q117.44 0.26 116.07-0.64Q114.71-1.54 114.16-3.06L116.07-3.96Q116.56-2.93 117.40-2.34Q118.25-1.76 119.28-1.76Q120.16-1.76 120.71-2.16Q121.26-2.55 121.26-3.23Q121.26-3.87 120.76-4.19Q120.25-4.51 119.68-4.66L117.81-5.19Q116.27-5.63 115.51-6.51Q114.75-7.39 114.75-8.60Q114.75-9.66 115.30-10.46Q115.85-11.26 116.81-11.71Q117.77-12.17 119-12.17Q120.63-12.17 121.90-11.36Q123.18-10.56 123.71-9.13L121.79-8.23Q121.42-9.09 120.66-9.59Q119.90-10.10 118.98-10.10Q118.14-10.10 117.67-9.71Q117.19-9.33 117.19-8.71Q117.19-8.07 117.67-7.78Q118.14-7.48 118.71-7.30L120.65-6.73Q122.10-6.31 122.90-5.42Q123.71-4.53 123.71-3.30Q123.71-2.24 123.14-1.44Q122.58-0.64 121.59-0.19Q120.60 0.26 119.28 0.26 M132.18 0.13Q130.31 0.13 129.27-0.92Q128.24-1.98 128.24-3.89L128.24-9.66L126.15-9.66L126.15-11.90L126.48-11.90Q127.29-11.90 127.76-12.37Q128.24-12.85 128.24-13.71L128.24-14.63L130.72-14.63L130.72-11.90L133.43-11.90L133.43-9.66L130.72-9.66L130.72-4Q130.72-3.08 131.17-2.57Q131.63-2.07 132.70-2.07Q133.10-2.07 133.52-2.13L133.52 0Q132.84 0.13 132.18 0.13 M139.30-13.53L136.82-13.53L136.82-16.39L139.30-16.39L139.30-13.53M139.30 0L136.82 0L136.82-11.90L139.30-11.90 M148.81 0L146.54 0L141.88-11.90L144.58-11.90L147.66-3.52L150.77-11.90L153.49-11.90 M159.19 0.26Q157.39 0.26 156.27-0.66Q155.14-1.58 155.14-3.15Q155.14-4.58 156.12-5.58Q157.10-6.58 159.17-6.93L162.95-7.55L162.95-8.01Q162.95-8.87 162.29-9.44Q161.63-10.01 160.58-10.01Q159.59-10.01 158.84-9.49Q158.09-8.98 157.76-8.16L155.69-9.20Q156.02-10.05 156.76-10.72Q157.50-11.40 158.51-11.78Q159.52-12.17 160.64-12.17Q162.05-12.17 163.13-11.64Q164.21-11.11 164.82-10.17Q165.44-9.24 165.44-8.01L165.44 0L163.06 0L163.06-1.39Q162.40-0.59 161.41-0.16Q160.42 0.26 159.19 0.26M157.74-3.23Q157.74-2.55 158.26-2.12Q158.77-1.69 159.59-1.69Q160.58-1.69 161.34-2.12Q162.10-2.55 162.52-3.30Q162.95-4.05 162.95-4.95L162.95-5.59L159.65-5.02Q158.66-4.84 158.20-4.38Q157.74-3.92 157.74-3.23 M171.71 0L169.22 0L169.22-16.65L171.71-16.65 M176.81 3.52L174.72 3.52Q177.89-1.14 177.89-6.45Q177.89-11.75 174.72-16.39L176.81-16.39Q180.49-12.19 180.49-6.45Q180.49-0.70 176.81 3.52" fill="#3F465C"/></g>
        <rect x="40" y="828" width="1520" height="320" fill="#F8F9FF" rx="20"/>
        <g transform="translate(340, 838.3448275862069) scale(1.3793103448275863)">
          <g transform="translate(8, 207)">
            <path d="M44.20 0L13.20 0L13.20-149L115.20-149L115.20-122L44.20-122L44.20-84.20L105.20-84.20L105.20-57.20L44.20-57.20 M178 2.40Q160.60 2.40 147.80-5.30Q135-13 128-26Q121-39 121-54.80Q121-71.20 128.30-84Q135.60-96.80 148-104.20Q160.40-111.60 176-111.60Q193.40-111.60 205.40-104.40Q217.40-97.20 223.70-85.10Q230-73 230-57.80Q230-54.60 229.70-51.50Q229.40-48.40 228.60-46.20L152.20-46.20Q153.40-36 160.40-29.80Q167.40-23.60 178.40-23.60Q186.40-23.60 192.10-26.80Q197.80-30 201-35.60L225-24.20Q220-12.20 207.40-4.90Q194.80 2.40 178 2.40M176-87.60Q167.20-87.60 161.10-82.60Q155-77.60 152.80-68.20L198.20-68.20Q197.20-76.80 191.20-82.20Q185.20-87.60 176-87.60 M289.40 2.40Q271.40 2.40 258.10-6.10Q244.80-14.60 240-29L262-39.40Q266.20-30.60 273.40-25.60Q280.60-20.60 289.40-20.60Q302.60-20.60 302.60-30.40Q302.60-37 291.80-40L273.20-45.20Q259.80-49 252.60-57.50Q245.40-66 245.40-77.60Q245.40-87.80 250.60-95.40Q255.80-103 265.20-107.30Q274.60-111.60 286.80-111.60Q302.80-111.60 314.90-104.10Q327-96.60 332-83L309.80-72.60Q307.40-79.40 301.10-83.50Q294.80-87.60 286.80-87.60Q281-87.60 277.70-85.20Q274.40-82.80 274.40-78.60Q274.40-72.20 286.20-68.80L303.60-63.60Q317.20-59.60 324.40-51.50Q331.60-43.40 331.60-31.60Q331.60-16.40 320-7Q308.40 2.40 289.40 2.40 M401.20 1.20Q381.40 1.20 370.50-9.50Q359.60-20.20 359.60-39.40L359.60-83.20L341.20-83.20L341.20-109.20L342.20-109.20Q359.60-109.20 359.60-126L359.60-134L389.60-134L389.60-109.20L415.20-109.20L415.20-83.20L389.60-83.20L389.60-41.40Q389.60-24.80 408.20-24.80Q411-24.80 415.20-25.40L415.20 0Q412.20 0.40 408.40 0.80Q404.60 1.20 401.20 1.20 M461.80 0L431.80 0L431.80-151.40L461.80-151.40 M587 2.40Q570.80 2.40 557.50-5Q544.20-12.40 536.30-25.30Q528.40-38.20 528.40-54.60Q528.40-71.20 536.30-84Q544.20-96.80 557.50-104.20Q570.80-111.60 587-111.60Q603.20-111.60 616.40-104.20Q629.60-96.80 637.50-84Q645.40-71.20 645.40-54.60Q645.40-38.20 637.50-25.30Q629.60-12.40 616.40-5Q603.20 2.40 587 2.40M587-24.60Q599.20-24.60 606.80-33Q614.40-41.40 614.40-54.60Q614.40-67.60 606.80-76.10Q599.20-84.60 587-84.60Q574.80-84.60 567.10-76.10Q559.40-67.60 559.40-54.60Q559.40-41.40 567.10-33Q574.80-24.60 587-24.60" fill="#0B1C30"/>
            <path d="M 484.8 -94 a 13 13 0 0 1 26 0 L 510.8 -13 a 13 13 0 0 1 -26 0 Z" fill="#0B1C30"/>
            <path d="M 497.8 -197 L 506.05 -172.25 L 530.8 -164 L 506.05 -155.75 L 497.8 -131 L 489.55 -155.75 L 464.8 -164 L 489.55 -172.25 Z" fill="url(#vg-grad)"/>
          </g>
        </g>
      </g>
    
  </svg>